<?xml version="1.0" standalone="no"?>
<!DOCTYPE svg PUBLIC "-//W3C//DTD SVG 20010904//EN"
 "http://www.w3.org/TR/2001/REC-SVG-20010904/DTD/svg10.dtd">
<svg version="1.0" xmlns="http://www.w3.org/2000/svg"
  width="400" height="400"  viewBox="0 0 930.000000 930.000000"
 preserveAspectRatio="xMidYMid meet">

<g transform="translate(0.000000,930.000000) scale(0.100000,-0.100000)"
fill="#000" stroke="none">
<path d="M3069 7481 l-39 -39 0 -2807 0 -2807 39 -39 39 -39 1646 0 c1790 0
1682 -3 1720 54 15 23 16 239 16 2826 0 2108 -3 2807 -12 2823 -14 27 -28 41
-55 55 -16 9 -440 12 -1669 12 l-1646 0 -39 -39z m1481 -866 l0 -775 135 0
135 0 0 775 0 775 540 0 540 0 0 -462 c0 -270 -4 -458 -9 -453 -7 9 -87 187
-317 708 l-39 87 -152 0 -153 0 0 -715 0 -715 135 0 135 0 0 402 c0 237 4 398
9 393 5 -6 84 -181 177 -390 92 -209 172 -386 177 -392 7 -10 51 -13 158 -13
l149 0 0 775 0 775 73 0 c60 0 77 -4 95 -20 l22 -21 0 -1364 0 -1365 -90 0
-90 0 0 178 0 178 -35 34 c-19 19 -35 39 -35 45 0 6 16 26 35 45 l35 34 0 210
0 211 -107 107 -108 108 -331 0 -332 0 -5 -27 c-3 -16 -6 -335 -6 -710 l-1
-682 33 -6 c18 -4 80 -5 138 -3 l104 3 3 273 2 272 168 -2 167 -3 3 -273 2
-273 225 3 225 3 0 -142 0 -143 -108 0 -107 0 -105 105 -105 105 -232 0 -232
0 -105 -107 -106 -107 0 -210 1 -211 104 -108 104 -108 200 3 201 3 0 -152 0
-153 -170 0 -170 0 0 105 0 105 -135 0 -135 0 0 -136 0 -137 102 -103 102
-104 235 0 236 0 102 102 103 103 0 215 0 215 -102 102 -103 103 -200 2 -200
3 -3 153 -3 152 171 0 170 0 0 -105 0 -105 245 0 245 0 0 -492 c0 -491 0 -492
-22 -515 l-21 -23 -1553 0 c-1513 0 -1552 0 -1575 19 l-24 19 -3 311 -3 311
96 0 95 0 0 -285 0 -285 573 2 572 3 2 265 2 265 168 0 168 0 3 -267 2 -268
135 0 135 0 0 314 0 314 -35 33 c-19 19 -35 38 -35 44 0 6 16 26 35 45 l35 34
0 211 0 210 -108 108 -108 107 -334 -2 -335 -3 -3 -572 -2 -573 -300 0 -300 0
0 150 0 150 178 2 177 3 0 133 0 133 -177 0 -178 0 0 154 0 155 225 0 225 0 0
135 0 135 -360 0 -360 0 0 -284 c0 -263 -1 -285 -17 -289 -14 -4 -132 -2 -166
2 -4 1 -6 146 -5 322 l3 321 210 -1 c116 -1 218 1 228 5 15 6 17 32 17 298 l0
291 23 -40 c13 -22 88 -152 167 -290 79 -137 148 -253 153 -257 18 -11 287 -5
287 7 0 6 -88 163 -195 350 -107 187 -195 345 -195 351 0 6 55 107 123 225
l123 214 155 0 154 0 5 -575 5 -575 355 0 355 0 3 138 3 137 -226 0 -225 0 0
150 0 150 180 0 180 0 0 135 0 135 -180 0 -180 0 0 155 0 155 225 0 225 0 0
135 0 135 -592 -2 -591 -3 -166 -290 -166 -290 -3 293 -2 292 -135 0 -135 0 0
-575 0 -575 -95 0 -95 0 2 1188 3 1187 220 0 220 0 3 -577 2 -578 135 0 135 0
2 578 3 577 133 3 132 3 0 118 c0 66 -3 126 -6 135 -5 14 -58 16 -495 16
l-489 0 0 35 c0 25 8 44 25 60 l24 25 671 0 670 0 0 -775z m1360 -1285 l0
-170 -170 0 -170 0 0 170 0 170 170 0 170 0 0 -170z m-1167 -1267 c4 -2 7 -12
7 -22 0 -27 35 -54 59 -46 29 9 60 -39 43 -66 -18 -28 -14 -65 8 -80 28 -20
14 -73 -21 -77 -37 -6 -51 -22 -45 -54 5 -24 1 -30 -25 -44 -28 -14 -32 -14
-48 0 -24 22 -38 20 -65 -7 -19 -19 -28 -21 -54 -15 -24 7 -32 14 -32 31 0 32
-18 47 -57 47 -26 0 -36 6 -45 25 -9 20 -8 28 5 43 24 26 21 57 -7 76 -20 13
-23 20 -17 43 4 16 16 30 27 32 31 5 54 32 54 63 0 36 40 59 71 40 28 -18 57
-15 69 8 8 16 17 19 38 14 15 -4 30 -9 35 -11z m-1403 -1713 l0 -280 160 0
159 0 7 35 c6 35 7 35 59 35 52 0 53 0 59 -35 l7 -35 153 0 152 0 29 30 c36
38 62 38 102 0 29 -27 39 -30 96 -30 56 0 66 3 90 28 24 25 26 34 29 132 3 97
4 105 23 105 19 0 20 -8 23 -132 l3 -133 34 0 34 0 3 78 3 77 45 0 45 0 3 -77
3 -78 94 0 93 0 12 35 c11 34 13 35 60 35 47 0 50 -1 58 -32 7 -29 13 -33 45
-36 20 -2 37 0 37 4 0 3 -18 75 -40 159 -22 84 -40 155 -40 159 0 3 32 6 70 6
l70 0 0 -165 0 -165 35 0 35 0 2 163 3 162 38 3 c35 3 37 5 37 38 l0 34 -193
0 -194 0 -44 -160 -43 -160 -33 0 -33 0 -1 58 c-1 31 -1 90 1 130 2 69 0 76
-26 103 -27 28 -31 29 -124 29 l-96 0 0 -27 c1 -37 -28 -38 -68 -2 -30 26 -41
29 -98 29 -57 0 -67 -3 -91 -28 -24 -25 -26 -34 -29 -132 -2 -84 -6 -105 -18
-108 -18 -3 -42 65 -31 88 5 8 9 38 10 67 2 45 -2 56 -27 83 -29 29 -31 30
-126 30 l-96 0 0 -160 0 -160 -32 0 -33 0 -40 160 -40 160 -40 0 -41 0 -13
-57 c-7 -32 -25 -103 -40 -158 l-28 -100 -97 -3 -96 -3 0 241 0 240 1455 0
c1442 0 1455 0 1475 -20 16 -16 20 -33 20 -80 l0 -60 -144 0 -144 0 -29 -72
c-16 -40 -33 -73 -37 -73 -5 0 -21 32 -36 70 -26 67 -29 70 -64 73 -35 3 -36
3 -30 -27 8 -40 -5 -40 -49 -1 -33 29 -38 30 -131 30 l-96 0 0 -85 c0 -78 -2
-85 -20 -85 -18 0 -20 7 -20 57 0 48 -4 61 -27 85 -24 26 -33 28 -98 28 -65 0
-74 -2 -98 -28 -27 -28 -27 -30 -27 -169 l0 -140 30 -32 c27 -28 36 -31 92
-31 56 0 65 3 95 32 28 27 33 39 33 80 0 51 0 51 24 42 13 -5 16 -22 16 -80
l0 -74 35 0 34 0 3 78 3 77 48 3 47 3 0 -81 0 -81 38 3 37 3 3 83 c2 55 -1 89
-9 98 -9 11 -9 18 -1 26 7 7 12 22 12 35 0 20 5 23 34 23 33 0 35 -2 60 -68
19 -48 26 -86 26 -135 l0 -67 35 0 35 0 0 73 c0 62 6 86 38 163 l38 89 122 3
122 3 0 -247 c0 -216 -2 -250 -17 -266 -15 -17 -78 -18 -1583 -18 l-1568 0
-16 25 c-14 21 -16 67 -16 353 0 318 1 330 21 356 19 24 27 26 90 26 l69 0 0
-280z m740 5 l0 -45 -50 0 -50 0 0 38 c0 21 3 42 7 45 3 4 26 7 50 7 l43 0 0
-45z m290 -80 l0 -125 -50 0 -50 0 0 125 0 125 50 0 50 0 0 -125z m290 75 l0
-50 -50 0 -50 0 0 50 0 50 50 0 50 0 0 -50z m820 -75 l0 -125 -47 0 -48 0 2
113 c1 61 2 118 2 125 1 8 17 12 46 12 l45 0 0 -125z m290 75 l0 -50 -48 0
-49 0 -1 41 c-1 23 1 45 4 50 3 5 25 9 50 9 l44 0 0 -50z m-2026 -97 c7 -31 6
-33 -18 -33 -29 0 -31 7 -14 62 13 43 18 38 32 -29z m1193 12 c10 -45 10 -45
-17 -45 -27 0 -27 0 -17 45 6 25 13 45 17 45 4 0 11 -20 17 -45z m-857 -70 l0
-45 -50 0 -50 0 0 38 c0 21 3 42 7 45 3 4 26 7 50 7 l43 0 0 -45z"/>
</g>
</svg>
